<?xml version="1.0" encoding="UTF-8"?>
<svg id="Livello_2" data-name="Livello 2" xmlns="http://www.w3.org/2000/svg" viewBox="0 0 357.75 382.37">
  <defs>
    <style>
      .cls-1 {
        fill: #fde4c2;
      }

      .cls-1, .cls-2, .cls-3, .cls-4, .cls-5 {
        stroke-width: 0px;
      }

      .cls-2 {
        fill: #ec6471;
      }

      .cls-3 {
        fill: #fff2de;
      }

      .cls-4 {
        fill: #100a09;
      }

      .cls-5 {
        fill: #fcd2a5;
      }
    </style>
  </defs>
  <g id="Livello_1-2" data-name="Livello 1">
    <path class="cls-4" d="m145.96,0c68.18,6.8,124.91,65.73,124.19,135.13,1.07,7.72,12.1,13.31,16.66,19.76,1.64,1.73,2.49,1.57,4.07-.05,14.78-11.75,31.96-45.31,52.73-25.45,33.34,27.09-1.4,40.66-19.72,62.63,9.14,9.09,18.17,18.03,27.15,27.02,8.96,8.97,8.93,19.11-.06,28.14-10.01,12.85-25.85,20.72-37.72,3.99-3.74-5.98,5.57-11.94,9.7-6,4.26,4.66,8.19,6.01,12.89.98,5.27-5.76,15.85-12.06,6.72-19.42-9.6-9.62-19.21-19.22-28.81-28.83-4.72-4.72-4.71-7.09.03-11.84,9.6-9.61,19.21-19.21,28.81-28.83,4.86-4.87,4.87-7.8.12-12.58-5.58-5.04-11.72-15.45-18.91-6.63-9.7,9.69-19.38,19.4-29.09,29.07-4.84,4.81-7,4.77-11.83-.06-9.78-9.78-19.55-19.58-29.36-29.34-4.3-4.28-7.24-4.27-11.48-.09-5.02,5.67-16.16,12.04-7.23,19.42,9.68,9.71,19.39,19.38,29.08,29.08,4.8,4.8,4.8,7.03,0,11.84-9.87,9.88-19.77,19.71-29.61,29.61-7.89,6.91,2.48,12.96,7.01,18.07,5.09,5.07,7.8,5.09,12.88.03,9.8-9.77,19.57-19.56,29.37-29.33,4.02-4.01,6.46-4.03,10.44-.14,4.07,5.46,15.19,10.19,9.74,17.94-10.04,6.75-11.41-13.48-20.3-1.62-4,5.37-12.19,9.03-13.24,15.9.07,13.21.12,26.42-.03,39.63-.16,98.41-139.11,131.16-183.24,43.05-17-31.97-33.69-64.11-50.5-96.18-5.27-8.15,6.7-13.98,10.22-4.99,16.37,31.36,32.86,62.66,49.27,94,17.48,36.04,60.81,55.97,99.46,44.92,50.59-12.97,69.63-63.82,63.13-111.44-13.31,8.2-22.89-.38-31.87-10.34-20.52-20.75,13.15-38.13,25.06-52.98,1.66-1.62,1.86-2.46.07-4.21-11.39-14.48-44.65-31.35-26.22-51.9,9.66-10.31,18.18-19.55,32.63-11.8C254.43,58.3,189.56,3.97,122.01,12.04,29.76,18.09-18.75,129.41,33.07,203.97c1.86,3.46,1.78,6.31-.97,9.08-4.78,1.58-6.65.82-9.05-3.62-7.89-14.63-15.55-29.31-19.31-45.72C-15.45,85.92,41.62,8.91,119.78,0h26.19Z"/>
    <path class="cls-1" d="m32.11,213.05c2.75-2.77,2.83-5.62.96-9.08C-18.75,129.4,29.76,18.09,122.01,12.04,58.37,33.49,19.95,106.93,41.46,171.12c13.49,34.78,33.96,66.38,50.31,99.86,21.09,36.96,34.45,84.52,78.12,100.67-31.32-.73-60.06-19.83-73.97-47.72-16.41-31.34-32.9-62.63-49.27-94-1.78-3.41-3.99-5.3-7.95-4.49-3.66-3.36-5.23-7.83-6.6-12.4Z"/>
    <path class="cls-2" d="m303.73,234.15c5.46-7.74-5.67-12.49-9.74-17.94-3.98-3.89-6.42-3.87-10.44.14-9.8,9.76-19.57,19.56-29.37,29.33-5.08,5.06-7.79,5.04-12.88-.03-4.54-5.11-14.9-11.16-7.01-18.07,42.57-44.87,43.75-25.64.54-70.54-8.93-7.37,2.21-13.75,7.23-19.42,4.24-4.18,7.18-4.19,11.48.09,9.81,9.76,19.57,19.56,29.36,29.34,4.83,4.83,7,4.87,11.83.06,9.72-9.67,19.39-19.38,29.09-29.07,4.74-4.73,7.52-4.72,12.31.02,5.18,5.69,15.47,11.78,6.49,19.19-9.59,9.62-19.2,19.22-28.8,28.83-4.74,4.74-4.75,7.11-.03,11.84,9.6,9.61,19.21,19.21,28.81,28.83,9.12,7.35-1.45,13.67-6.72,19.42-9.55,10.83-12.8-9.14-22.05-1.61-3.36-3.47-6.72-6.93-10.08-10.4Z"/>
    <path class="cls-3" d="m169.89,371.66c-18.98-8.12-36.16-21.6-46.19-39.88-21.58-40.66-42.68-81.57-64.19-122.26C11.32,138.43,39.97,40.92,122.01,12.04c67.55-8.06,132.41,46.24,136.16,114.15-14.44-7.73-22.98,1.45-32.63,11.8-18.43,20.55,14.82,37.42,26.21,51.9,1.79,1.74,1.59,2.59-.07,4.21-11.91,14.86-45.6,32.23-25.07,52.98,8.99,9.92,18.56,18.56,31.87,10.34,8.56,58.6-24.25,116-88.61,114.23Zm2.82-109.75c.98,4.92,3.5,6.68,8.56,5.67,11.51-2.29,19.33-9.06,22.64-20.26,3.3-11.17.59-21.15-7.83-29.37-17.41-12.57-16.71-39.61,3.26-49.54,17.22-7.83,21.15-27.11,17.57-44.13C195.13,6.04,19.08,47.98,58.2,162.21c6.45,15.89,15.65,30.46,23.27,45.8,1.83,3.68,4.31,5.3,8.34,4.37,18.49,28.18,48.64,48.15,82.91,49.52Z"/>
    <path class="cls-5" d="m172.71,261.9c-34.26-1.36-64.41-21.34-82.91-49.52,3.67-3.07,4.09-5.04,1.84-9.35-6.38-12.22-12.78-24.44-19.18-36.65-25.37-43.42,8.49-102.61,58.79-102.74,42.53-1.65,78.94,36.39,75.05,78.86-39.78-75.01-126.58-28.51-87.77-27.16,31.98-11.94,66.25,3.65,78.35,35.64,1.83,4.83,1.8,4.77-2.69,7.22-25.83,12.36-29.65,49.8-6.86,67.1,12.17,9,6.24,30.21-9,31.18-3.38.43-5.11,2.19-5.64,5.41Z"/>
    <path class="cls-4" d="m172.71,261.9c.52-3.22,2.25-4.98,5.64-5.41,15.23-.98,21.17-22.18,9-31.18-22.8-17.3-18.98-54.74,6.86-67.1,4.49-2.45,4.51-2.39,2.69-7.22-12.1-31.99-46.37-47.58-78.35-35.64-38.8-1.27,47.86-47.93,87.77,27.16,6.38-91.26-130.06-109.48-142.07-16.41-3.47,28.84,15.78,52.26,27.41,76.94,2.25,4.3,1.83,6.27-1.84,9.35-4.03.93-6.51-.7-8.34-4.37-7.62-15.34-16.82-29.91-23.27-45.81C18.02,32.96,221.56,9.98,217.52,144.01c-1.72,11.21-8.03,19.16-18.18,24.39-16.02,8.25-20.68,27.94-10.31,42.35,10.5,9.88,20.29,21.35,14.88,36.57-3.31,11.19-11.13,17.97-22.64,20.26-5.06,1.01-7.58-.75-8.56-5.67Z"/>
  </g>
</svg>